<svg xmlns="http://www.w3.org/2000/svg" width="146.132" height="50" viewBox="0 0 146.132 50"><g transform="translate(-20 -34.053)"><g transform="translate(20 34.226)"><g transform="translate(20.784 0)"><g transform="translate(0 0.179)"><path d="M748.784,886.534l-.093-49.193,13.844-.026.065,34.159,15.929-.03.029,15.033Z" transform="translate(-748.691 -837.315)"/></g><g transform="translate(78.8)"><path d="M1494.225,835.674l29.981-.057.028,14.955-16.184.03.011,5.667,11.829-.022.027,14.167-11.829.022.027,14.4-13.8.026Z" transform="translate(-1494.225 -835.617)"/></g><g transform="translate(32.03 0.056)"><path d="M1079.639,864.156l19.388-28.011-16.477.031L1065.7,859.564l-.044-23.357-13.927.026.093,49.193,13.928-.026-.012-6.432,4.552-5.964,11.937,12.365,17.781-.033Z" transform="translate(-1051.731 -836.144)"/></g></g><g transform="translate(1.135 38.703)"><path d="M573.939,1211.593c.3.16.529.068.735-.278a10.567,10.567,0,0,0,.732-2,8.678,8.678,0,0,1,1.03-2.346,2.025,2.025,0,0,1,1.446-.969,2.193,2.193,0,0,1,1.587.411,3.257,3.257,0,0,1,1.129,1.537,5.62,5.62,0,0,1,.395,2,9.536,9.536,0,0,1-.408,2.874,2.288,2.288,0,0,1-1.192,1.657,1.424,1.424,0,0,1-1.586-.342,5.321,5.321,0,0,1-1.292-2.5,1.268,1.268,0,0,1-.252.391,1.321,1.321,0,0,1-1.171.554,1.585,1.585,0,0,1-1.2-.618,3.652,3.652,0,0,1-.6-1.193,3.711,3.711,0,0,1-.5.552,2.519,2.519,0,0,1-2.3.51,3.967,3.967,0,0,1-2.394-1.558,4.4,4.4,0,0,1-.994-2.8v-.207a2.787,2.787,0,0,1-1.1-.481,2.426,2.426,0,0,1-.875-.963,1.977,1.977,0,0,1-.186-.988,1.067,1.067,0,0,1,.3-.691.787.787,0,0,1,.62-.207.89.89,0,0,1,.6.251.741.741,0,0,1,.208.621,1.353,1.353,0,0,1-.251.736,1.342,1.342,0,0,0-.251.713.8.8,0,0,0,.3.62,1.017,1.017,0,0,0,.667.321,2.38,2.38,0,0,1,.847-1.611,2.535,2.535,0,0,1,2.3-.51,3.971,3.971,0,0,1,2.416,1.536,4.46,4.46,0,0,1,.994,2.825,2.431,2.431,0,0,1-.342,1.265A1.282,1.282,0,0,0,573.939,1211.593ZM568,1208.846a8.593,8.593,0,0,0,2.393,1.144,5.025,5.025,0,0,0,2.391.34q.827-.173.825-.9a1.747,1.747,0,0,0-.83-1.4,9.2,9.2,0,0,0-2.416-1.121,4.97,4.97,0,0,0-2.391-.34.876.876,0,0,0-.8.9A1.68,1.68,0,0,0,568,1208.846Zm9.685,4.073a1.7,1.7,0,0,0,1.517.342,1.941,1.941,0,0,0,1.262-1.152,4.9,4.9,0,0,0,.433-2.161,4.521,4.521,0,0,0-.418-1.907,1.861,1.861,0,0,0-1.106-1.1.946.946,0,0,0-1.171.484,10.11,10.11,0,0,0-.983,2.393,12.98,12.98,0,0,1-.64,1.7A4.055,4.055,0,0,0,577.689,1212.919Z" transform="translate(-564.707 -1203.701)" fill="#0dfe92"/><path d="M576.936,1212.912a1.849,1.849,0,0,1-1.2-.516,4.816,4.816,0,0,1-1.213-2.145l-.019.022a1.535,1.535,0,0,1-1.344.618,1.808,1.808,0,0,1-1.36-.7,4.05,4.05,0,0,1-.509-.883c-.085.092-.174.18-.27.266a2.73,2.73,0,0,1-2.492.563A4.174,4.174,0,0,1,566,1208.5a4.6,4.6,0,0,1-1.043-2.942v-.021a3.3,3.3,0,0,1-1-.477A2.639,2.639,0,0,1,563,1204a2.2,2.2,0,0,1-.206-1.1,1.29,1.29,0,0,1,.362-.833,1.035,1.035,0,0,1,.807-.274,1.114,1.114,0,0,1,.734.316.967.967,0,0,1,.274.8,1.535,1.535,0,0,1-.285.838,1.112,1.112,0,0,0-.217.591.574.574,0,0,0,.223.449.882.882,0,0,0,.322.218,2.684,2.684,0,0,1,.888-1.506,2.754,2.754,0,0,1,2.494-.565,4.235,4.235,0,0,1,2.552,1.618,4.716,4.716,0,0,1,1.043,2.966,2.634,2.634,0,0,1-.326,1.3,1.018,1.018,0,0,0,.457.662l0,0c.134.068.255.107.433-.194a11.293,11.293,0,0,0,.709-1.951,8.916,8.916,0,0,1,1.06-2.408,2.241,2.241,0,0,1,1.608-1.065,2.424,2.424,0,0,1,1.746.451,3.47,3.47,0,0,1,1.21,1.641,5.929,5.929,0,0,1,.409,2.081,9.8,9.8,0,0,1-.419,2.942,2.514,2.514,0,0,1-1.327,1.8A1.529,1.529,0,0,1,576.936,1212.912Zm-1.711-2.09a3.376,3.376,0,0,0,.805,1.23,1.2,1.2,0,0,0,1.347.3,2.1,2.1,0,0,0,1.065-1.508c.007-.022.013-.043.021-.065a1.981,1.981,0,0,1-1.124.786,1.925,1.925,0,0,1-1.711-.381l0,0A3.674,3.674,0,0,1,575.225,1210.822Zm.679,0a1.459,1.459,0,0,0,1.32.3,1.723,1.723,0,0,0,1.117-1.03,4.7,4.7,0,0,0,.408-2.063,4.328,4.328,0,0,0-.395-1.813,1.641,1.641,0,0,0-.971-.979c-.249-.088-.569-.119-.911.394a9.859,9.859,0,0,0-.955,2.335,14.08,14.08,0,0,1-.6,1.631A3.777,3.777,0,0,0,575.9,1210.825Zm-3.69-.844a1.341,1.341,0,0,0,.963.457l.067,0a1.09,1.09,0,0,0,.914-.466,1.128,1.128,0,0,0,.222-.343l.248-.584.014.044c.127-.316.268-.718.442-1.258a10.1,10.1,0,0,1,1.01-2.449,1.165,1.165,0,0,1,1.437-.574l.08.028c-.064-.055-.129-.107-.2-.157a1.993,1.993,0,0,0-1.425-.37,1.79,1.79,0,0,0-1.286.869,8.519,8.519,0,0,0-1,2.284,10.221,10.221,0,0,1-.754,2.054A.765.765,0,0,1,572.214,1209.981Zm-6.61-3.144a4.389,4.389,0,0,0,.751,1.38,3.727,3.727,0,0,0,2.257,1.475,2.3,2.3,0,0,0,2.1-.454,3.343,3.343,0,0,0,.476-.521l.033-.049c.03-.052.058-.1.083-.156a1.743,1.743,0,0,1-.391.127,5.165,5.165,0,0,1-2.508-.346,8.813,8.813,0,0,1-2.458-1.176A2.88,2.88,0,0,1,565.6,1206.837Zm.919-2a2.042,2.042,0,0,0-.423.039c-.559.123-.623.445-.623.676a1.453,1.453,0,0,0,.734,1.193l0,0a8.367,8.367,0,0,0,2.328,1.109,4.844,4.844,0,0,0,2.271.335c.574-.12.646-.424.645-.676a1.527,1.527,0,0,0-.737-1.217,9.075,9.075,0,0,0-2.349-1.087A6.173,6.173,0,0,0,566.523,1204.841Zm-.006-.455a6.6,6.6,0,0,1,2,.4,9.523,9.523,0,0,1,2.477,1.15,3.386,3.386,0,0,1,.346.3,4.4,4.4,0,0,0-.752-1.4,3.735,3.735,0,0,0-2.279-1.452,2.31,2.31,0,0,0-2.1.457,2.511,2.511,0,0,0-.567.721,1.653,1.653,0,0,1,.369-.126A2.477,2.477,0,0,1,566.517,1204.386Zm-2.67-2.143a.569.569,0,0,0-.386.154.851.851,0,0,0-.219.536,1.765,1.765,0,0,0,.164.875,2.064,2.064,0,0,0,.623.746,1.024,1.024,0,0,1-.022-.214,1.535,1.535,0,0,1,.289-.836,1.1,1.1,0,0,0,.213-.611.538.538,0,0,0-.141-.463.668.668,0,0,0-.455-.184A.533.533,0,0,0,563.848,1202.243Z" transform="translate(-562.783 -1201.788)" fill="#0dfe92"/></g><g transform="translate(3.282 29.39)"><path d="M595.671,1126.031l-8.557-3.547c-.575-.252-.9-.274-.988-.09s.138.552.714,1.079a19.67,19.67,0,0,0,1.934,1.559l-.023.046a15.622,15.622,0,0,1-2.325-1.9,3.056,3.056,0,0,1-1.153-1.975c0-.505.16-.828.5-.966a2.244,2.244,0,0,1,1.495.227l.874.366v-.092a8.812,8.812,0,0,1-1.888-1.468,2.776,2.776,0,0,1-.992-1.974,1.7,1.7,0,0,1,.32-1.058,1.094,1.094,0,0,1,.827-.393,1.06,1.06,0,0,1,.828.343.954.954,0,0,1,.186.9.974.974,0,0,1-.711.714.754.754,0,0,0-.573.76c0,.391.346.85,1.014,1.423a12.685,12.685,0,0,0,3.037,1.695l5.475,2.265Z" transform="translate(-585.036 -1115.614)" fill="#0dfe92"/><path d="M593.965,1124.436l-8.873-3.677c-.515-.227-.678-.2-.706-.187a2.383,2.383,0,0,0,.673.8,19.527,19.527,0,0,0,1.912,1.541l.156.11-.195.414-.243-.1a15.81,15.81,0,0,1-2.36-1.931,3.254,3.254,0,0,1-1.22-2.135,1.13,1.13,0,0,1,.646-1.178,1.786,1.786,0,0,1,1.077.022c-.224-.188-.448-.394-.67-.615a3,3,0,0,1-1.06-2.137,1.944,1.944,0,0,1,.366-1.194,1.332,1.332,0,0,1,1.007-.485,1.285,1.285,0,0,1,1,.42,1.185,1.185,0,0,1,.236,1.106,1.2,1.2,0,0,1-.866.874.522.522,0,0,0-.409.54c0,.3.305.712.934,1.253a12.508,12.508,0,0,0,2.98,1.658l5.611,2.321Zm-9.521-4.326a2.308,2.308,0,0,1,.827.23l8.237,3.414,0-1.6-5.335-2.207c-.67-.288-1.242-.562-1.732-.83v.115l-1.189-.5a2.093,2.093,0,0,0-1.335-.221c-.143.058-.349.2-.349.75a1.93,1.93,0,0,0,.431,1.07A.473.473,0,0,1,584.443,1120.11Zm.033-5.974a.865.865,0,0,0-.657.317,1.482,1.482,0,0,0-.261.905,2.148,2.148,0,0,0,.421,1.231.975.975,0,0,1,.722-.943.757.757,0,0,0,.569-.557.727.727,0,0,0-.142-.692A.831.831,0,0,0,584.476,1114.136Z" transform="translate(-583.101 -1113.679)" fill="#0dfe92"/></g><g transform="translate(3.269 20.89)"><path d="M594.3,1044.915a4.551,4.551,0,0,1-3.539.283,7.671,7.671,0,0,1-3.866-2.613,6.516,6.516,0,0,1-1.755-4,2.855,2.855,0,0,1,1.4-2.669,4.564,4.564,0,0,1,3.539-.282,7.482,7.482,0,0,1,3.866,2.613,6.424,6.424,0,0,1,1.777,4A2.872,2.872,0,0,1,594.3,1044.915Zm-7.708-4.169a13.257,13.257,0,0,0,3.866,2.13,9.982,9.982,0,0,0,3.725.821c.9-.048,1.379-.417,1.447-1.083a2.989,2.989,0,0,0-1.361-2.526,13.26,13.26,0,0,0-3.865-2.13,9.978,9.978,0,0,0-3.725-.82c-.9.047-1.378.417-1.446,1.083A2.987,2.987,0,0,0,586.6,1040.747Z" transform="translate(-584.914 -1035.192)" fill="#0dfe92"/><path d="M590.4,1043.712a6.579,6.579,0,0,1-1.63-.222,7.925,7.925,0,0,1-3.984-2.686,6.782,6.782,0,0,1-1.811-4.139,3.081,3.081,0,0,1,1.511-2.87,4.778,4.778,0,0,1,3.712-.308,7.759,7.759,0,0,1,3.984,2.687,6.689,6.689,0,0,1,1.83,4.139,3.082,3.082,0,0,1-1.532,2.868A4.038,4.038,0,0,1,590.4,1043.712Zm-6.653-5.483a7.906,7.906,0,0,0,1.388,2.279,7.47,7.47,0,0,0,3.749,2.539,4.309,4.309,0,0,0,3.365-.258,2.512,2.512,0,0,0,1-1.039,2.3,2.3,0,0,1-.987.244,10.284,10.284,0,0,1-3.818-.833,13.559,13.559,0,0,1-3.93-2.17h0A5.382,5.382,0,0,1,583.746,1038.229Zm1.2-2.8c-.067,0-.131,0-.193,0-1.148.061-1.21.676-1.231.879a2.779,2.779,0,0,0,1.28,2.327h0a13.1,13.1,0,0,0,3.8,2.093,9.961,9.961,0,0,0,3.634.807c1.148-.061,1.21-.677,1.231-.88a2.779,2.779,0,0,0-1.28-2.327,13.094,13.094,0,0,0-3.8-2.093A10.558,10.558,0,0,0,584.946,1035.431Zm0-.455a10.978,10.978,0,0,1,3.605.839,13.538,13.538,0,0,1,3.93,2.17,5.589,5.589,0,0,1,.761.755,7.84,7.84,0,0,0-1.4-2.271,7.307,7.307,0,0,0-3.749-2.54,4.335,4.335,0,0,0-3.367.258,2.456,2.456,0,0,0-1,1.05,2.254,2.254,0,0,1,1.008-.255C584.8,1034.977,584.869,1034.975,584.942,1034.975Z" transform="translate(-582.975 -1033.262)" fill="#0dfe92"/></g><g transform="translate(3.254 9.395)"><path d="M585.17,927.736l8.557,3.546c.575.252.9.274.989.09s-.139-.552-.714-1.079a19.653,19.653,0,0,0-1.934-1.56l.023-.046a17.064,17.064,0,0,1,2.325,1.881,3.139,3.139,0,0,1,1.153,2.02c0,.483-.159.8-.5.92a2.072,2.072,0,0,1-1.494-.2l-2.991-1.235v.092a19.691,19.691,0,0,1,3.867,3.119,3.771,3.771,0,0,1,1.131,2.365c0,.483-.159.8-.5.92a2.076,2.076,0,0,1-1.494-.2l-6.741-2.791c-.575-.252-.9-.274-.988-.09s.139.552.714,1.079a19.624,19.624,0,0,0,1.934,1.559l-.023.046a15.682,15.682,0,0,1-2.325-1.9,3.05,3.05,0,0,1-1.153-2,.9.9,0,0,1,.5-.943,2.247,2.247,0,0,1,1.495.227l6.74,2.792c.575.251.9.251.989,0q.137-.346-.554-1.172a12.981,12.981,0,0,0-2.3-2.018,16.993,16.993,0,0,0-3.428-1.97l-3.266-1.35Z" transform="translate(-584.769 -927.395)" fill="#0dfe92"/><path d="M592.75,935.975a3.249,3.249,0,0,1-1.191-.292l-6.741-2.791c-.523-.231-.679-.2-.706-.188a2.4,2.4,0,0,0,.673.8,19.816,19.816,0,0,0,1.912,1.541l.157.111-.2.409-.24-.1a15.73,15.73,0,0,1-2.358-1.929,3.218,3.218,0,0,1-1.222-2.16,1.1,1.1,0,0,1,.648-1.155,2.412,2.412,0,0,1,1.665.229l6.741,2.791c.476.209.626.171.664.16.034-.058.095-.276-.492-.976a12.618,12.618,0,0,0-2.263-1.983,16.722,16.722,0,0,0-3.383-1.943l-3.4-1.407-.006-2.585,8.873,3.677c.518.227.684.194.7.188a2.321,2.321,0,0,0-.672-.8A19.769,19.769,0,0,0,590,926.03l-.157-.111.2-.409.24.1a17.509,17.509,0,0,1,2.357,1.9,3.328,3.328,0,0,1,1.222,2.185c0,.756-.358,1.035-.66,1.138a2.252,2.252,0,0,1-1.654-.211l-1.357-.561a15.376,15.376,0,0,1,2.493,2.176,3.961,3.961,0,0,1,1.188,2.515c0,.756-.359,1.035-.66,1.137A1.236,1.236,0,0,1,592.75,935.975Zm-8.581-3.733a2.3,2.3,0,0,1,.829.23l6.736,2.789a1.892,1.892,0,0,0,1.322.2c.1-.033.36-.121.36-.709a2.6,2.6,0,0,0-.395-1.28.34.34,0,0,1-.018.055.488.488,0,0,1-.27.286,1.365,1.365,0,0,1-1.023-.159l-6.735-2.789a2.1,2.1,0,0,0-1.334-.221c-.142.056-.349.2-.349.727a1.943,1.943,0,0,0,.431,1.095A.471.471,0,0,1,584.168,932.242Zm4.243-3.405,3.312,1.367a1.906,1.906,0,0,0,1.321.2c.1-.033.363-.122.361-.709a1.955,1.955,0,0,0-.429-1.1c-.242.451-.991.125-1.276,0l-8.237-3.414,0,1.6,3.126,1.293a17.654,17.654,0,0,1,1.82.91Z" transform="translate(-582.835 -924.505)" fill="#0dfe92"/></g><g transform="translate(0 0.191)"><path d="M562.711,848.542l-.046.046a10.719,10.719,0,0,1-2.648-2.523c-.047-.092-.116-.183-.162-.275l-2.737-1.121-1.062-2.526,2.99,1.235v-.069a3.73,3.73,0,0,1,1.029-2.714,3.826,3.826,0,0,1,2.963-1.017,7.062,7.062,0,0,1,3.588,1.028,5.715,5.715,0,0,1,2.326,2.294,5.817,5.817,0,0,1,.672,2.6,2.508,2.508,0,0,1-.663,1.978l3.174,1.327a1.089,1.089,0,0,0,1.011.09.8.8,0,0,0,.435-.737h.046l.008,4.39h-.046a1.7,1.7,0,0,0-.37-.919,2.272,2.272,0,0,0-.966-.688l-11.893-4.919A9.437,9.437,0,0,0,562.711,848.542Zm6.615-2.518a3.04,3.04,0,0,0-.786-1.952,7.745,7.745,0,0,0-2.693-1.811,9.551,9.551,0,0,0-3.84-.889c-1.287,0-2.091.418-2.411,1.269a2.961,2.961,0,0,0-.136.92l9.408,3.89A1.88,1.88,0,0,0,569.326,846.024Z" transform="translate(-555.633 -839.349)" fill="#0dfe92"/><path d="M570.282,850.849h-.442l-.061-.214a1.459,1.459,0,0,0-.325-.8,2.062,2.062,0,0,0-.872-.613L557.4,844.6a9.334,9.334,0,0,0,1.86,1.836l.211.159-.367.365-.156-.107a11.032,11.032,0,0,1-2.7-2.579c-.04-.071-.065-.111-.09-.15l-.048-.079-2.75-1.126-1.312-3.123,3.193,1.318a3.909,3.909,0,0,1,1.086-2.6,4.11,4.11,0,0,1,3.13-1.087,7.338,7.338,0,0,1,3.7,1.061,5.918,5.918,0,0,1,2.411,2.388,6.035,6.035,0,0,1,.7,2.7,3.237,3.237,0,0,1-.5,1.9l2.865,1.2c.485.228.7.168.814.1a.606.606,0,0,0,.319-.55l.012-.215h.442l.048.228Zm-13.833-7.137,12.308,5.091a2.494,2.494,0,0,1,1.062.761l0,.006,0-2.492a.9.9,0,0,1-.162.095,1.294,1.294,0,0,1-1.2-.092l-3.1-1.295-.009.01L552.9,840.639l.811,1.931Zm-.341-2.226,9.109,3.766a1.742,1.742,0,0,0,.3-1.142V844.1a2.808,2.808,0,0,0-.732-1.806,7.624,7.624,0,0,0-2.61-1.749,9.289,9.289,0,0,0-3.749-.869c-1.192,0-1.912.369-2.195,1.121A2.558,2.558,0,0,0,556.108,841.486Zm2.316-2.266a9.756,9.756,0,0,1,3.933.911A7.924,7.924,0,0,1,565.13,842a3.861,3.861,0,0,1,.658,1.1,5.9,5.9,0,0,0-.623-2.024,5.488,5.488,0,0,0-2.238-2.2,6.871,6.871,0,0,0-3.475-.995c-.039,0-.077,0-.114,0a3.519,3.519,0,0,0-2.681.949,3.383,3.383,0,0,0-.952,2.179,2.95,2.95,0,0,1,.092-.363C556.153,839.7,557.035,839.224,558.425,839.22Z" transform="translate(-552.049 -837.425)" fill="#0dfe92"/></g></g><g transform="translate(151.707 34.053)"><path d="M1806.624,835.972h-2.947v-1.188h2.947v-.8h1.4v.8h2.067v1.188h-2.067v.725h-1.4Zm-.957,4.613v7.56h-1.327V836.96h5.385v3.626Zm0-2.762v.586h2.778v-.586Zm2.778,1.9v-.586h-2.778v.586Zm8.146,6.9c0,.648-.139.987-.556,1.188a4.423,4.423,0,0,1-1.9.232,4.336,4.336,0,0,0-.417-1.188l-.463.648c-.432-.355-1.558-1.157-2.314-1.682v2.052h-1.127v-1.975a9.2,9.2,0,0,1-2.87,1.651,5.592,5.592,0,0,0-.756-.864,9.146,9.146,0,0,0,2.839-1.281h-1.975v-2.9h2.746v-.524h-3.179v-.8h3.179v-.741h1.142v.741h3.317v.8h-3.317v.524h2.87v2.9h-2.145c.772.432,1.851,1.065,2.175,1.281l-.123.17c.556.016,1.1.016,1.265.016.185,0,.231-.062.231-.247V840.6h-4.228V836.96h5.6Zm-8.579-2.006h1.9V843.27h-1.9Zm.942-1.234a10.65,10.65,0,0,1,.617.895l-.587.278c-.138-.262-.385-.648-.586-.957Zm8.286-8.594v1.188h-2.917v.725h-1.42v-.725h-2.191v-1.188h2.191v-.8h1.42v.8Zm-4.413,8.486h-1.975v1.343h1.975Zm-1.651,1.08a8.578,8.578,0,0,0,.632-.988l.633.293c-.262.355-.525.679-.741.926Zm1.111-6.511v.571h2.931v-.571Zm2.931,1.9v-.586h-2.931v.586Z" transform="translate(-1803.091 -833.982)" fill="#0dfe92"/><path d="M1802.822,1008.653c-.185-.463-.571-1.234-.942-1.929v7.545h-1.3v-6.835a15.248,15.248,0,0,1-1.729,3.873,8.249,8.249,0,0,0-.725-1.419,15.393,15.393,0,0,0,2.329-5.524h-1.8v-1.327h1.929v-2.9h1.3v2.9h1.775v1.327h-1.775v.571c.417.586,1.528,2.3,1.79,2.746Zm9.735,3.7v1.373h-9.566v-1.373h4.243v-2.191h-3.255v-1.327h3.255v-1.62h1.466v1.62h3.225v1.327H1808.7v2.191Zm-.169-5.663H1803.7v-1.327h3.533v-1.959h-3.024V1002.1h3.024v-1.9h1.466v1.9h3.008v1.312H1808.7v1.959h3.688Z" transform="translate(-1798.131 -982.574)" fill="#0dfe92"/><path d="M1809.025,1171.263v.124h4.443s-.015.432-.031.632c-.185,4.4-.355,6.064-.849,6.619a1.491,1.491,0,0,1-1.188.586,18.413,18.413,0,0,1-2.13.015,3.088,3.088,0,0,0-.462-1.42c.833.077,1.62.093,1.944.093a.752.752,0,0,0,.6-.2c.293-.324.479-1.666.633-4.983h-3.024a8.531,8.531,0,0,1-3.965,6.666,6.041,6.041,0,0,0-1.08-.987,7.874,7.874,0,0,0,3.672-7.175v-2.006h-2.376v1.111h-1.682v4.135c.6-.231,1.219-.447,1.821-.663l.262,1.343c-1.805.694-3.75,1.45-5.246,2.005l-.34-1.481c.587-.185,1.312-.447,2.115-.725v-4.613h-1.852v-1.358h1.852v-3.518h1.389v3.518h1.635v-1.126h9.072v1.373h-5.214Zm.386-3.487a19.459,19.459,0,0,0-.695-2.36l1.358-.294c.262.725.617,1.682.756,2.268Z" transform="translate(-1799.828 -1130.122)" fill="#0dfe92"/></g></g></svg>